<svg width="199" height="240" viewBox="0 0 199 240" fill="none" xmlns="http://www.w3.org/2000/svg">
<path opacity="0.4" d="M154.619 176.52L90.6708 33.9312C114.816 25.5472 136.358 39.4754 144.11 47.4875L158.598 79.792L170.049 74.6564L156.835 45.192C129.937 10.6359 94.1454 17.0701 79.6119 24.6067C43.2661 40.3125 40.4755 78.7228 43.6234 95.9648L56.8375 125.429L68.6427 120.135L54.1549 87.8305C54.0679 56.1457 71.3008 41.9076 79.9281 38.749L143.876 181.338C131.32 181.796 122.966 175.342 120.359 172.058L73.4726 67.5121C69.4359 73.8139 71.5877 86.3371 73.1682 91.811L89.4338 128.08L47.4665 146.901L26.5308 100.219C17.2189 48.8504 53.5274 18.349 72.8456 9.51941C119.721 -11.1622 158.067 18.0608 171.38 35.2576L192.316 81.9393L151.411 100.284L135.145 64.0157C128.268 52.6024 119.104 49.0611 115.381 48.7172L162.267 153.263C164.482 163.64 158.091 173.092 154.619 176.52Z" fill="#1F346F"/>
<path d="M159.284 186.923L166.05 202.01C188.37 189.556 192.296 164.206 191.47 153.088L176.982 120.783L188.433 115.648L201.647 145.112C209.562 188.182 180.953 210.63 165.658 216.47C129.757 233.166 99.2173 209.703 88.4353 195.885L75.2212 166.421L87.0263 161.126L101.514 193.431C125.117 214.569 147.211 211.17 155.308 206.828L148.541 191.741C135.775 195.05 130.893 191.91 130.893 191.91C117.504 187.823 114.224 181.406 111.187 176.585C108.151 171.764 94.9217 140.316 94.9217 140.316L52.9544 159.138L73.8901 205.82C106.057 246.939 152.983 240.111 172.425 231.558C219.046 210.308 222.727 162.237 218.739 140.858L197.804 94.1761L156.899 112.521L173.164 148.79C177.114 161.516 171.444 173.724 171.444 173.724C171.444 173.724 164.154 186.611 159.284 186.923Z" fill="url(#paint0_linear_15216_29657)" fill-opacity="0.15"/>
<defs>
<linearGradient id="paint0_linear_15216_29657" x1="256.592" y1="419.231" x2="125.379" y2="126.657" gradientUnits="userSpaceOnUse">
<stop stop-color="#2ED3B7"/>
<stop offset="1" stop-color="#1E396E"/>
</linearGradient>
</defs>
</svg>
