<svg width="24" height="24" viewBox="0 0 24 24" fill="none" xmlns="http://www.w3.org/2000/svg">
<path d="M4.25 6.75H4.75V6.25V5C4.75 3.75614 5.75614 2.75 7 2.75H19C20.2439 2.75 21.25 3.75614 21.25 5V19C21.25 20.2439 20.2439 21.25 19 21.25H7C5.75614 21.25 4.75 20.2439 4.75 19V17.75V17.25H4.25H3C2.86614 17.25 2.75 17.1339 2.75 17C2.75 16.8661 2.86614 16.75 3 16.75H4.25H4.75V16.25V12.75V12.25H4.25H3C2.86614 12.25 2.75 12.1339 2.75 12C2.75 11.8661 2.86614 11.75 3 11.75H4.25H4.75V11.25V7.75V7.25H4.25H3C2.86614 7.25 2.75 7.13386 2.75 7C2.75 6.86614 2.86614 6.75 3 6.75H4.25ZM5.75 17.25H5.25V17.75V19C5.25 19.9661 6.03386 20.75 7 20.75H19C19.9661 20.75 20.75 19.9661 20.75 19V5C20.75 4.03386 19.9661 3.25 19 3.25H7C6.03386 3.25 5.25 4.03386 5.25 5V6.25V6.75H5.75H6C6.13386 6.75 6.25 6.86614 6.25 7C6.25 7.13386 6.13386 7.25 6 7.25H5.75H5.25V7.75V11.25V11.75H5.75H6C6.13386 11.75 6.25 11.8661 6.25 12C6.25 12.1339 6.13386 12.25 6 12.25H5.75H5.25V12.75V16.25V16.75H5.75H6C6.13386 16.75 6.25 16.8661 6.25 17C6.25 17.1339 6.13386 17.25 6 17.25H5.75Z" fill="#1D2939" stroke="#71808E"/>
<path d="M13 11.75C14.52 11.75 15.75 10.52 15.75 9C15.75 7.48 14.52 6.25 13 6.25C11.48 6.25 10.25 7.48 10.25 9C10.25 10.52 11.48 11.75 13 11.75ZM13 7.75C13.69 7.75 14.25 8.31 14.25 9C14.25 9.69 13.69 10.25 13 10.25C12.31 10.25 11.75 9.69 11.75 9C11.75 8.31 12.31 7.75 13 7.75Z" fill="#1D2939"/>
<path d="M14 13.25H12C10.48 13.25 9.25 14.48 9.25 16V17C9.25 17.41 9.59 17.75 10 17.75C10.41 17.75 10.75 17.41 10.75 17V16C10.75 15.31 11.31 14.75 12 14.75H14C14.69 14.75 15.25 15.31 15.25 16V17C15.25 17.41 15.59 17.75 16 17.75C16.41 17.75 16.75 17.41 16.75 17V16C16.75 14.48 15.52 13.25 14 13.25Z" fill="#1D2939"/>
</svg>
