<svg width="23" height="22" viewBox="0 0 23 22" fill="none" xmlns="http://www.w3.org/2000/svg">
<path d="M11.3334 20.6252V5.9585M4.00008 11.0002H18.6667V20.1668H4.00008V11.0002ZM3.08341 11.0002H19.5834C20.0897 11.0002 20.5001 10.5898 20.5001 10.0835V6.41683C20.5001 5.91057 20.0897 5.50016 19.5834 5.50016H3.08341C2.57715 5.50016 2.16675 5.91057 2.16675 6.41683V10.0835C2.16675 10.5898 2.57715 11.0002 3.08341 11.0002ZM11.3334 5.50022C11.3334 5.50022 13.5292 5.50022 14.5417 5.50022C15.5543 5.50022 16.3751 4.67941 16.3751 3.66688C16.3751 2.65436 15.5543 1.83355 14.5417 1.83355C14.115 1.83355 13.7754 1.81843 13.1667 2.29183C12.1681 3.06852 11.3334 5.50022 11.3334 5.50022ZM11.7917 5.50022C11.7917 5.50022 9.59594 5.50022 8.58341 5.50022C7.57089 5.50022 6.75008 4.67941 6.75008 3.66688C6.75008 2.65436 7.57089 1.83355 8.58341 1.83355C9.01014 1.83355 9.34971 1.81843 9.95841 2.29183C10.9571 3.06852 11.7917 5.50022 11.7917 5.50022Z" stroke="#06A77D" stroke-width="2"/>
</svg>
