<svg width="46" height="47" viewBox="0 0 46 47" fill="none" xmlns="http://www.w3.org/2000/svg">
<g id="Gift Card" clip-path="url(#clip0_15517_44506)">
<g id="Group">
<path id="Vector" fill-rule="evenodd" clip-rule="evenodd" d="M38.8114 38.5938V37.8748C38.8114 37.0817 39.4554 36.4375 40.2491 36.4375C41.0428 36.4375 41.6868 37.0817 41.6868 37.8748V40.031C41.6868 40.8248 41.0428 41.4683 40.2491 41.4683H8.62424C7.83057 41.4683 7.18652 40.8248 7.18652 40.031V18.4685C7.18652 17.6748 7.83057 17.0312 8.62424 17.0312H40.2491C41.0428 17.0312 41.6868 17.6748 41.6868 18.4685V32.125C41.6868 32.9181 41.0428 33.5623 40.2491 33.5623C39.4554 33.5623 38.8114 32.9181 38.8114 32.125V19.9058H10.062V38.5938H38.8114Z" fill="#364F6B"/>
<path id="Vector_2" fill-rule="evenodd" clip-rule="evenodd" d="M16.5312 21.3438C13.7542 21.3438 11.5 23.5979 11.5 26.375C11.5 29.1521 13.7542 31.4063 16.5312 31.4063H20.125C20.9192 31.4063 21.5625 30.763 21.5625 29.9688V26.375C21.5625 23.5979 19.3083 21.3438 16.5312 21.3438ZM18.6875 28.5313V26.375C18.6875 25.1846 17.7217 24.2188 16.5312 24.2188C15.3408 24.2188 14.375 25.1846 14.375 26.375C14.375 27.5654 15.3408 28.5313 16.5312 28.5313H18.6875Z" fill="#364F6B"/>
<path id="Vector_3" fill-rule="evenodd" clip-rule="evenodd" d="M23.7188 21.3438C20.9417 21.3438 18.6875 23.5979 18.6875 26.375V29.9688C18.6875 30.763 19.3308 31.4063 20.125 31.4063H23.7188C26.4958 31.4063 28.75 29.1521 28.75 26.375C28.75 23.5979 26.4958 21.3438 23.7188 21.3438ZM21.5625 28.5313H23.7188C24.9092 28.5313 25.875 27.5654 25.875 26.375C25.875 25.1846 24.9092 24.2188 23.7188 24.2188C22.5283 24.2188 21.5625 25.1846 21.5625 26.375V28.5313Z" fill="#364F6B"/>
<path id="Vector_4" fill-rule="evenodd" clip-rule="evenodd" d="M18.6877 17.0311V40.7499C18.6877 41.5433 19.3315 42.1872 20.125 42.1872C20.9185 42.1872 21.5623 41.5433 21.5623 40.7499V17.0311C21.5623 16.2377 20.9185 15.5938 20.125 15.5938C19.3315 15.5938 18.6877 16.2377 18.6877 17.0311Z" fill="#364F6B"/>
<path id="Vector_5" fill-rule="evenodd" clip-rule="evenodd" d="M7.18736 31.4075H41.6875C42.481 31.4075 43.1252 30.7631 43.1252 29.9699C43.1252 29.1766 42.481 28.5322 41.6875 28.5322H7.18736C6.39386 28.5322 5.74963 29.1766 5.74963 29.9699C5.74963 30.7631 6.39386 31.4075 7.18736 31.4075Z" fill="#364F6B"/>
<path id="Vector_6" fill-rule="evenodd" clip-rule="evenodd" d="M19.1083 28.9522L14.7958 33.2647C14.2352 33.8259 14.2352 34.7369 14.7958 35.298C15.357 35.8587 16.268 35.8587 16.8292 35.298L21.1417 30.9855C21.7023 30.4244 21.7023 29.5134 21.1417 28.9522C20.5805 28.3916 19.6695 28.3916 19.1083 28.9522Z" fill="#364F6B"/>
<path id="Vector_7" fill-rule="evenodd" clip-rule="evenodd" d="M19.1083 30.9855L23.4208 35.298C23.982 35.8587 24.893 35.8587 25.4542 35.298C26.0148 34.7369 26.0148 33.8259 25.4542 33.2647L21.1417 28.9522C20.5805 28.3916 19.6695 28.3916 19.1083 28.9522C18.5477 29.5134 18.5477 30.4244 19.1083 30.9855Z" fill="#364F6B"/>
<path id="Vector_8" fill-rule="evenodd" clip-rule="evenodd" d="M38.134 18.4688H8.625V30.5294L4.3125 14.4351L34.8601 6.25L38.134 18.4688Z" fill="#3FC1C9"/>
<path id="Vector_9" fill-rule="evenodd" clip-rule="evenodd" d="M10.0625 19.9063V30.5294C10.0625 31.251 9.52777 31.8605 8.81261 31.9547C8.09746 32.0488 7.42327 31.5982 7.23639 30.9017L2.92389 14.8075C2.71833 14.0406 3.1733 13.2521 3.94021 13.0465L34.4878 4.86139C35.2547 4.65583 36.0432 5.1108 36.2487 5.87771L39.5226 18.0965C39.6384 18.5284 39.5464 18.9891 39.2747 19.3442C39.0023 19.6985 38.5811 19.9063 38.134 19.9063H10.0625ZM36.2602 17.0313L33.8438 8.01025L6.07273 15.4515L7.18752 19.6109V18.4688C7.18752 17.6746 7.8308 17.0313 8.62502 17.0313H36.2602Z" fill="#364F6B"/>
</g>
</g>
<defs>
<clipPath id="clip0_15517_44506">
<rect width="46" height="46" fill="white" transform="translate(0 0.5)"/>
</clipPath>
</defs>
</svg>
