<svg width="23" height="22" viewBox="0 0 23 22" fill="none" xmlns="http://www.w3.org/2000/svg">
<path d="M11.5 20.6252V5.9585M4.16671 11.0002H18.8334V20.1668H4.16671V11.0002ZM3.25004 11.0002H19.75C20.2563 11.0002 20.6667 10.5898 20.6667 10.0835V6.41683C20.6667 5.91057 20.2563 5.50016 19.75 5.50016H3.25004C2.74378 5.50016 2.33337 5.91057 2.33337 6.41683V10.0835C2.33337 10.5898 2.74378 11.0002 3.25004 11.0002ZM11.5 5.50022C11.5 5.50022 13.6959 5.50022 14.7084 5.50022C15.7209 5.50022 16.5417 4.67941 16.5417 3.66688C16.5417 2.65436 15.7209 1.83355 14.7084 1.83355C14.2817 1.83355 13.9421 1.81843 13.3334 2.29183C12.3347 3.06852 11.5 5.50022 11.5 5.50022ZM11.9584 5.50022C11.9584 5.50022 9.76256 5.50022 8.75004 5.50022C7.73752 5.50022 6.91671 4.67941 6.91671 3.66688C6.91671 2.65436 7.73752 1.83355 8.75004 1.83355C9.17676 1.83355 9.51634 1.81843 10.125 2.29183C11.1237 3.06852 11.9584 5.50022 11.9584 5.50022Z" stroke="#71808E" stroke-width="2"/>
</svg>
