<svg width="23" height="24" viewBox="0 0 23 24" fill="none" xmlns="http://www.w3.org/2000/svg">
<path d="M2.33337 10.183C2.33337 9.22946 2.78669 8.3327 3.55453 7.76729L11.5 1.9165L19.4456 7.76729C20.2134 8.3327 20.6667 9.22946 20.6667 10.183V19.5832C20.6667 20.9639 19.5474 22.0832 18.1667 22.0832H15.25C14.6978 22.0832 14.25 21.6355 14.25 21.0832V15.7082C14.25 15.432 14.0262 15.2082 13.75 15.2082H9.25004C8.9739 15.2082 8.75004 15.432 8.75004 15.7082V21.0832C8.75004 21.6355 8.30233 22.0832 7.75004 22.0832H4.83337C3.45266 22.0832 2.33337 20.9639 2.33337 19.5832V10.183Z" stroke="#06A77D" stroke-width="2" stroke-linecap="round" stroke-linejoin="round"/>
</svg>
