<svg width="22" height="24" viewBox="0 0 22 24" fill="none" xmlns="http://www.w3.org/2000/svg">
<path d="M1.83337 10.183C1.83337 9.22946 2.28669 8.3327 3.05453 7.76729L11 1.9165L18.9456 7.76729C19.7134 8.3327 20.1667 9.22946 20.1667 10.183V19.5832C20.1667 20.9639 19.0474 22.0832 17.6667 22.0832H14.75C14.1978 22.0832 13.75 21.6355 13.75 21.0832V15.7082C13.75 15.432 13.5262 15.2082 13.25 15.2082H8.75004C8.4739 15.2082 8.25004 15.432 8.25004 15.7082V21.0832C8.25004 21.6355 7.80233 22.0832 7.25004 22.0832H4.33337C2.95266 22.0832 1.83337 20.9639 1.83337 19.5832V10.183Z" stroke="#71808E" stroke-width="2" stroke-linecap="round" stroke-linejoin="round"/>
</svg>
