<svg width="33" height="49" viewBox="0 0 33 49" fill="none" xmlns="http://www.w3.org/2000/svg">
<g id="LOGO">
<path id="Vector 3" d="M18.0403 37.201V5.91893C23.1537 6.36545 25.9564 10.674 26.7185 12.7724V19.8596H29.2389V13.3955C27.1499 4.88052 20.0626 3.12388 16.7801 3.30993C8.82942 3.20135 5.16152 9.98838 4.32141 13.3955V19.8596H6.91969V12.7724C9.50757 6.97811 13.8354 5.78913 15.6759 5.91893V37.201C13.3374 36.256 12.3371 34.393 12.1292 33.5795V10.6437C10.8717 11.464 10.2368 13.9277 10.0766 15.0569V23.0137H0.839722V12.7724C3.35485 2.62717 12.5146 0.0302869 16.7801 0C27.0693 0.0623045 31.6942 8.54091 32.7206 12.7724V23.0137H23.7175V15.0569C23.3954 12.409 22.007 11.0115 21.3531 10.6437V33.5795C20.9062 35.6564 18.9584 36.8592 18.0403 37.201Z" fill="#06184D"/>
<path id="Vector 4" d="M18.0403 39.483V42.793C23.1537 42.3465 25.9564 38.0379 26.7185 35.9395V28.8523H29.2389V35.3164C27.1499 43.8314 20.0626 45.588 16.7801 45.402C8.82942 45.5106 5.16152 38.7235 4.32141 35.3164V28.8523H6.91969V35.9395C9.50757 41.7338 13.8354 42.9228 15.6759 42.793V39.483C13.0646 39.0417 12.428 38.0682 12.428 38.0682C10.3104 36.225 10.2368 34.7842 10.0766 33.655C9.91636 32.5257 10.0766 25.6982 10.0766 25.6982H0.839722V35.9395C3.35485 46.0847 12.5146 48.6816 16.7801 48.7119C27.0693 48.6496 31.6942 40.171 32.7206 35.9395V25.6982H23.7175V33.655C23.3954 36.3029 21.3531 38.0682 21.3531 38.0682C21.3531 38.0682 18.9584 39.8249 18.0403 39.483Z" fill="url(#paint0_linear_15904_5820)"/>
</g>
<defs>
<linearGradient id="paint0_linear_15904_5820" x1="16.7801" y1="89.8849" x2="16.7801" y2="25.6982" gradientUnits="userSpaceOnUse">
<stop stop-color="#2ED3B7"/>
<stop offset="1" stop-color="#1E396E"/>
</linearGradient>
</defs>
</svg>
