<svg width="141" height="49" viewBox="0 0 141 49" fill="none" xmlns="http://www.w3.org/2000/svg">
<path d="M18.0403 37.201V5.91893C23.1537 6.36545 25.9564 10.674 26.7185 12.7724V19.8596H29.2389V13.3955C27.1499 4.88052 20.0626 3.12388 16.7801 3.30993C8.82942 3.20135 5.16152 9.98838 4.32141 13.3955V19.8596H6.91969V12.7724C9.50757 6.97811 13.8354 5.78913 15.6759 5.91893V37.201C13.3374 36.256 12.3371 34.393 12.1292 33.5795V10.6437C10.8717 11.464 10.2368 13.9277 10.0766 15.0569V23.0137H0.839722V12.7724C3.35485 2.62717 12.5146 0.0302869 16.7801 0C27.0693 0.0623045 31.6942 8.54091 32.7206 12.7724V23.0137H23.7175V15.0569C23.3954 12.409 22.007 11.0115 21.3531 10.6437V33.5795C20.9062 35.6564 18.9584 36.8592 18.0403 37.201Z" fill="#06184D"/>
<path d="M18.0403 39.483V42.793C23.1537 42.3465 25.9564 38.0379 26.7185 35.9395V28.8523H29.2389V35.3164C27.1499 43.8314 20.0626 45.588 16.7801 45.402C8.82942 45.5106 5.16152 38.7235 4.32141 35.3164V28.8523H6.91969V35.9395C9.50757 41.7338 13.8354 42.9228 15.6759 42.793V39.483C13.0646 39.0417 12.428 38.0682 12.428 38.0682C10.3104 36.225 10.2368 34.7842 10.0766 33.655C9.91636 32.5257 10.0766 25.6982 10.0766 25.6982H0.839722V35.9395C3.35485 46.0847 12.5146 48.6816 16.7801 48.7119C27.0693 48.6496 31.6942 40.171 32.7206 35.9395V25.6982H23.7175V33.655C23.3954 36.3029 21.3531 38.0682 21.3531 38.0682C21.3531 38.0682 18.9584 39.8249 18.0403 39.483Z" fill="url(#paint0_linear_15150_22955)"/>
<path d="M58.0254 15.4626C58.0254 18.4896 57.2749 20.8162 55.7739 22.4423C54.2729 24.0685 52.1214 24.8815 49.3195 24.8815C46.5176 24.8815 44.3661 24.0685 42.8651 22.4423C41.364 20.8162 40.6135 18.4813 40.6135 15.4375C40.6135 12.3938 41.364 10.0714 42.8651 8.47028C44.3744 6.86084 46.5342 6.05612 49.3445 6.05612C52.1548 6.05612 54.3021 6.86501 55.7864 8.48278C57.2791 10.1006 58.0254 12.4272 58.0254 15.4626ZM44.6788 15.4626C44.6788 17.5056 45.0666 19.0442 45.8421 20.0782C46.6176 21.1123 47.7768 21.6293 49.3195 21.6293C52.4133 21.6293 53.9602 19.5737 53.9602 15.4626C53.9602 11.3431 52.4216 9.28333 49.3445 9.28333C47.8018 9.28333 46.6385 9.80452 45.8546 10.8469C45.0707 11.8809 44.6788 13.4195 44.6788 15.4626ZM70.6636 24.6313H66.7859V9.57103H61.82V6.34382H75.6295V9.57103H70.6636V24.6313ZM87.292 24.6313H83.4143V9.57103H78.4484V6.34382H92.2579V9.57103H87.292V24.6313ZM113.464 15.4626C113.464 18.4896 112.714 20.8162 111.213 22.4423C109.712 24.0685 107.56 24.8815 104.758 24.8815C101.957 24.8815 99.8051 24.0685 98.304 22.4423C96.803 20.8162 96.0525 18.4813 96.0525 15.4375C96.0525 12.3938 96.803 10.0714 98.304 8.47028C99.8134 6.86084 101.973 6.05612 104.783 6.05612C107.594 6.05612 109.741 6.86501 111.225 8.48278C112.718 10.1006 113.464 12.4272 113.464 15.4626ZM100.118 15.4626C100.118 17.5056 100.506 19.0442 101.281 20.0782C102.057 21.1123 103.216 21.6293 104.758 21.6293C107.852 21.6293 109.399 19.5737 109.399 15.4626C109.399 11.3431 107.861 9.28333 104.783 9.28333C103.241 9.28333 102.077 9.80452 101.294 10.8469C100.51 11.8809 100.118 13.4195 100.118 15.4626Z" fill="#06184D"/>
<path d="M42.1239 39.0808H41.3359V33.4726H39.3439V32.7634H44.1159V33.4726H42.1239V39.0808ZM52.0895 38.3716V39.0808H48.1756V32.7634H52.0895V33.4726H48.9636V35.4996H51.9275V36.2001H48.9636V38.3716H52.0895ZM58.9598 39.1859C57.2173 39.1859 56.1141 37.9206 56.1141 35.9199C56.1141 33.9367 57.2305 32.6583 58.9598 32.6583C60.3345 32.6583 61.3808 33.4945 61.5822 34.7553H60.7854C60.584 33.9279 59.8617 33.385 58.9598 33.385C57.7252 33.385 56.924 34.3832 56.924 35.9199C56.924 37.4697 57.7164 38.4591 58.9642 38.4591C59.8923 38.4591 60.5578 38.0126 60.7854 37.2421H61.5822C61.2933 38.4898 60.3564 39.1859 58.9598 39.1859ZM70.786 39.0808H69.998V36.2045H66.5306V39.0808H65.7425V32.7634H66.5306V35.4952H69.998V32.7634H70.786V39.0808ZM76.0189 39.0808H75.2396V32.7634H76.0058L79.4644 37.7236H79.5038V32.7634H80.2831V39.0808H79.5169L76.0583 34.138H76.0189V39.0808ZM87.403 32.6583C89.1936 32.6583 90.3143 33.9191 90.3143 35.9243C90.3143 37.9294 89.1936 39.1859 87.403 39.1859C85.6123 39.1859 84.4916 37.9294 84.4916 35.9243C84.4916 33.9191 85.6123 32.6583 87.403 32.6583ZM87.403 33.385C86.1114 33.385 85.3015 34.3657 85.3015 35.9243C85.3015 37.4785 86.1114 38.4591 87.403 38.4591C88.6945 38.4591 89.5044 37.4785 89.5044 35.9243C89.5044 34.3657 88.6945 33.385 87.403 33.385ZM98.3579 38.3716V39.0808H94.5228V32.7634H95.3108V38.3716H98.3579ZM104.856 32.6583C106.647 32.6583 107.767 33.9191 107.767 35.9243C107.767 37.9294 106.647 39.1859 104.856 39.1859C103.066 39.1859 101.945 37.9294 101.945 35.9243C101.945 33.9191 103.066 32.6583 104.856 32.6583ZM104.856 33.385C103.565 33.385 102.755 34.3657 102.755 35.9243C102.755 37.4785 103.565 38.4591 104.856 38.4591C106.148 38.4591 106.958 37.4785 106.958 35.9243C106.958 34.3657 106.148 33.385 104.856 33.385ZM117.304 36.4671C117.304 38.1746 116.31 39.1859 114.625 39.1859C112.86 39.1859 111.731 37.8988 111.731 35.8892C111.731 33.9148 112.856 32.6583 114.625 32.6583C115.991 32.6583 117.028 33.4682 117.265 34.7247H116.437C116.174 33.871 115.513 33.385 114.625 33.385C113.324 33.385 112.541 34.3219 112.541 35.8849C112.541 37.4741 113.338 38.4591 114.625 38.4591C115.745 38.4591 116.516 37.7324 116.516 36.6729V36.5591H114.734V35.8674H117.304V36.4671ZM122.331 39.0808H121.543V32.7634H122.331V39.0808ZM130.699 38.3716V39.0808H126.785V32.7634H130.699V33.4726H127.573V35.4996H130.537V36.2001H127.573V38.3716H130.699ZM134.666 37.3427H135.459C135.533 38.0257 136.181 38.4766 137.083 38.4766C137.937 38.4766 138.558 38.0257 138.558 37.404C138.558 36.8699 138.186 36.5416 137.337 36.3227L136.527 36.1125C135.363 35.8148 134.846 35.3026 134.846 34.4445C134.846 33.3938 135.765 32.6583 137.079 32.6583C138.335 32.6583 139.246 33.4025 139.281 34.462H138.493C138.423 33.7834 137.876 33.3675 137.052 33.3675C136.234 33.3675 135.665 33.7922 135.665 34.4095C135.665 34.8867 136.015 35.1713 136.873 35.3945L137.534 35.5697C138.843 35.898 139.373 36.4015 139.373 37.3077C139.373 38.4635 138.462 39.1859 137.009 39.1859C135.669 39.1859 134.741 38.4591 134.666 37.3427Z" fill="#06184D"/>
<defs>
<linearGradient id="paint0_linear_15150_22955" x1="16.7801" y1="89.8849" x2="16.7801" y2="25.6982" gradientUnits="userSpaceOnUse">
<stop stop-color="#2ED3B7"/>
<stop offset="1" stop-color="#1E396E"/>
</linearGradient>
</defs>
</svg>
