<svg width="23" height="22" viewBox="0 0 23 22" fill="none" xmlns="http://www.w3.org/2000/svg">
<path d="M17.8203 14.7012C16.9026 15.5372 15.196 16.7504 13.8477 17.1087C14.3129 16.2821 14.0551 15.2167 13.2474 14.6981L10.8369 13.1518C9.27014 12.1445 7.4102 12.0015 5.81772 12.6395C5.75722 12.475 5.64756 12.333 5.50362 12.233C5.35969 12.1329 5.18845 12.0795 5.01314 12.0801H2.63714C2.16257 12.0801 1.776 12.4698 1.776 12.9444V19.4029C1.776 19.8775 2.15943 20.2641 2.634 20.2641H5.01314C5.49086 20.2641 5.87429 19.8775 5.87429 19.4029V18.8058C8.76697 18.8878 8.73586 20.0265 10.752 20.6727C13.1887 21.4577 15.7579 20.9838 17.8737 18.9158L19.904 16.8949C20.0487 16.7505 20.1626 16.5782 20.2388 16.3885C20.3151 16.1988 20.3521 15.9956 20.3477 15.7912C20.3433 15.5867 20.2976 15.3853 20.2132 15.1991C20.1288 15.0129 20.0076 14.8456 19.8569 14.7075C19.58 14.4513 19.217 14.3084 18.8398 14.3073C18.4626 14.3061 18.0987 14.4467 17.8203 14.7012ZM4.17086 19.3527C4.03666 19.3527 3.90796 19.2993 3.81306 19.2045C3.71817 19.1096 3.66486 18.9809 3.66486 18.8467C3.66486 18.7125 3.71817 18.5838 3.81306 18.4889C3.90796 18.394 4.03666 18.3407 4.17086 18.3407C4.30506 18.3407 4.43376 18.394 4.52865 18.4889C4.62355 18.5838 4.67686 18.7125 4.67686 18.8467C4.67686 18.9809 4.62355 19.1096 4.52865 19.2045C4.43376 19.2993 4.30506 19.3527 4.17086 19.3527ZM4.17086 17.7624C4.03666 17.7624 3.90796 17.7091 3.81306 17.6142C3.71817 17.5193 3.66486 17.3906 3.66486 17.2564C3.66486 17.1222 3.71817 16.9935 3.81306 16.8986C3.90796 16.8037 4.03666 16.7504 4.17086 16.7504C4.30506 16.7504 4.43376 16.8037 4.52865 16.8986C4.62355 16.9935 4.67686 17.1222 4.67686 17.2564C4.67686 17.3906 4.62355 17.5193 4.52865 17.6142C4.43376 17.7091 4.30506 17.7624 4.17086 17.7624ZM10.9437 20.0755C9.24563 19.5271 8.77106 18.2486 5.87429 18.1741L5.87114 13.2901C7.57206 12.6002 9.18497 12.8369 10.4974 13.6798L12.908 15.2292C13.1699 15.3972 13.3549 15.6619 13.4226 15.9657C13.4903 16.2694 13.4352 16.5876 13.2694 16.8509C12.9313 17.384 12.2706 17.5263 11.7671 17.2878L9.06114 16.0087C8.904 15.9364 8.71543 16.0024 8.64314 16.1595C8.62508 16.1966 8.61457 16.2369 8.61223 16.2781C8.60989 16.3193 8.61576 16.3605 8.6295 16.3994C8.64325 16.4383 8.66459 16.4741 8.6923 16.5047C8.72 16.5352 8.7535 16.56 8.79086 16.5775L11.5 17.8567C12.0154 18.1018 12.5969 18.0798 13.0777 17.8409C14.7749 17.8881 17.1917 16.1218 18.2414 15.1664C18.4043 15.0172 18.6174 14.935 18.8382 14.9362C19.059 14.9374 19.2713 15.0218 19.4326 15.1727C19.5209 15.2531 19.5919 15.3506 19.6412 15.4594C19.6905 15.5682 19.7172 15.6858 19.7195 15.8052C19.7219 15.9247 19.6999 16.0433 19.6549 16.1539C19.6099 16.2645 19.5428 16.3648 19.4577 16.4487L17.4337 18.4664C15.086 20.7638 12.6063 20.6098 10.9437 20.0755Z" fill="#06A77D"/>
<path d="M20.7118 5.59287H18.4709C18.6215 5.29357 18.6737 4.95436 18.6201 4.62363C18.5665 4.2929 18.4098 3.98755 18.1723 3.75116C17.5375 3.12258 16.4541 3.11158 15.8183 3.79515C15.1932 3.12321 14.1149 3.11001 13.4675 3.75116C12.9571 4.2669 12.8719 5.01773 13.1721 5.59287H10.9281C10.6452 5.59287 10.4158 5.8223 10.4158 6.10201V7.10144C10.4158 7.38116 10.6452 7.61058 10.9249 7.61058H11.1575V11.7246C11.1575 12.438 11.7358 13.0226 12.4492 13.0226H19.1843C19.9041 13.0226 20.4823 12.438 20.4823 11.7246V7.61058H20.7118C20.9946 7.61058 21.2241 7.38116 21.2241 7.10144V6.10201C21.2241 5.81915 20.9946 5.59287 20.7118 5.59287ZM14.9949 12.1646H12.4492C12.2041 12.1646 12.0155 11.9697 12.0155 11.7246V7.86201H14.9949V12.1646ZM14.6681 5.59287H14.4103C13.8613 5.45175 13.6718 4.7575 14.0803 4.35773C14.4886 3.94004 15.3227 4.14338 15.3846 4.81344C15.0389 4.9423 14.7718 5.23144 14.6681 5.59287ZM17.5595 4.35773C17.9677 4.75687 17.7792 5.45144 17.2295 5.59287H16.9718C16.9211 5.41623 16.8299 5.25383 16.7055 5.11854C16.5811 4.98325 16.427 4.87879 16.2552 4.81344C16.3165 4.15061 17.1522 3.94098 17.5595 4.35773ZM19.6243 11.7246C19.6243 11.9697 19.4358 12.1646 19.1843 12.1646H16.6449V7.86201H19.6243V11.7246ZM15.8199 2.41984C15.9033 2.41984 15.9832 2.38673 16.0421 2.32779C16.1011 2.26885 16.1342 2.18891 16.1342 2.10556V1.28401C16.1342 1.20066 16.1011 1.12072 16.0421 1.06178C15.9832 1.00284 15.9033 0.969727 15.8199 0.969727C15.7366 0.969727 15.6566 1.00284 15.5977 1.06178C15.5387 1.12072 15.5056 1.20066 15.5056 1.28401V2.10556C15.5056 2.18891 15.5387 2.26885 15.5977 2.32779C15.6566 2.38673 15.7366 2.41984 15.8199 2.41984ZM12.5105 3.01824C12.5397 3.04744 12.5743 3.07061 12.6124 3.08642C12.6506 3.10223 12.6915 3.11038 12.7327 3.11039C12.774 3.1104 12.8149 3.10229 12.853 3.0865C12.8912 3.07072 12.9258 3.04758 12.955 3.0184C12.9842 2.98922 13.0074 2.95457 13.0232 2.91644C13.039 2.87831 13.0472 2.83743 13.0472 2.79615C13.0472 2.75487 13.0391 2.71399 13.0233 2.67585C13.0075 2.6377 12.9844 2.60304 12.9552 2.57384L12.3247 1.9437C12.2958 1.91368 12.2611 1.88974 12.2227 1.87327C12.1844 1.85679 12.1431 1.84812 12.1014 1.84776C12.0597 1.8474 12.0183 1.85535 11.9797 1.87115C11.941 1.88696 11.906 1.91029 11.8764 1.9398C11.8469 1.96931 11.8236 2.0044 11.8078 2.04303C11.792 2.08165 11.784 2.12304 11.7844 2.16477C11.7848 2.2065 11.7934 2.24774 11.8099 2.28608C11.8264 2.32443 11.8503 2.35911 11.8803 2.3881L12.5105 3.01824ZM19.1287 3.01824L19.7595 2.38841C19.7895 2.35942 19.8134 2.32474 19.8299 2.2864C19.8464 2.24805 19.8551 2.20681 19.8554 2.16508C19.8558 2.12335 19.8478 2.08197 19.832 2.04334C19.8162 2.00472 19.7929 1.96963 19.7634 1.94012C19.7339 1.91061 19.6988 1.88727 19.6602 1.87147C19.6215 1.85567 19.5801 1.84771 19.5384 1.84808C19.4967 1.84844 19.4554 1.85711 19.4171 1.87358C19.3788 1.89005 19.3441 1.91399 19.3151 1.94401L18.6843 2.57384C18.6543 2.60283 18.6304 2.63751 18.6139 2.67586C18.5974 2.7142 18.5887 2.75544 18.5884 2.79717C18.588 2.8389 18.596 2.88029 18.6118 2.91891C18.6276 2.95754 18.6509 2.99263 18.6804 3.02214C18.7099 3.05165 18.745 3.07498 18.7836 3.09078C18.8223 3.10659 18.8637 3.11454 18.9054 3.11418C18.9471 3.11381 18.9884 3.10514 19.0267 3.08867C19.065 3.0722 19.0997 3.04826 19.1287 3.01824Z" fill="#06A77D"/>
</svg>
