<svg width="22" height="22" viewBox="0 0 22 22" fill="none" xmlns="http://www.w3.org/2000/svg">
<path d="M17.3203 14.7012C16.4026 15.5372 14.696 16.7504 13.3477 17.1087C13.8129 16.2821 13.5551 15.2167 12.7474 14.6981L10.3369 13.1518C8.77014 12.1445 6.9102 12.0015 5.31772 12.6395C5.25722 12.475 5.14756 12.333 5.00362 12.233C4.85969 12.1329 4.68845 12.0795 4.51314 12.0801H2.13714C1.66257 12.0801 1.276 12.4698 1.276 12.9444V19.4029C1.276 19.8775 1.65943 20.2641 2.134 20.2641H4.51314C4.99086 20.2641 5.37429 19.8775 5.37429 19.4029V18.8058C8.26697 18.8878 8.23586 20.0265 10.252 20.6727C12.6887 21.4577 15.2579 20.9838 17.3737 18.9158L19.404 16.8949C19.5487 16.7505 19.6626 16.5782 19.7388 16.3885C19.8151 16.1988 19.8521 15.9956 19.8477 15.7912C19.8433 15.5867 19.7976 15.3853 19.7132 15.1991C19.6288 15.0129 19.5076 14.8456 19.3569 14.7075C19.08 14.4513 18.717 14.3084 18.3398 14.3073C17.9626 14.3061 17.5987 14.4467 17.3203 14.7012ZM3.67086 19.3527C3.53666 19.3527 3.40796 19.2993 3.31306 19.2045C3.21817 19.1096 3.16486 18.9809 3.16486 18.8467C3.16486 18.7125 3.21817 18.5838 3.31306 18.4889C3.40796 18.394 3.53666 18.3407 3.67086 18.3407C3.80506 18.3407 3.93376 18.394 4.02865 18.4889C4.12355 18.5838 4.17686 18.7125 4.17686 18.8467C4.17686 18.9809 4.12355 19.1096 4.02865 19.2045C3.93376 19.2993 3.80506 19.3527 3.67086 19.3527ZM3.67086 17.7624C3.53666 17.7624 3.40796 17.7091 3.31306 17.6142C3.21817 17.5193 3.16486 17.3906 3.16486 17.2564C3.16486 17.1222 3.21817 16.9935 3.31306 16.8986C3.40796 16.8037 3.53666 16.7504 3.67086 16.7504C3.80506 16.7504 3.93376 16.8037 4.02865 16.8986C4.12355 16.9935 4.17686 17.1222 4.17686 17.2564C4.17686 17.3906 4.12355 17.5193 4.02865 17.6142C3.93376 17.7091 3.80506 17.7624 3.67086 17.7624ZM10.4437 20.0755C8.74563 19.5271 8.27106 18.2486 5.37429 18.1741L5.37114 13.2901C7.07206 12.6002 8.68497 12.8369 9.99743 13.6798L12.408 15.2292C12.6699 15.3972 12.8549 15.6619 12.9226 15.9657C12.9903 16.2694 12.9352 16.5876 12.7694 16.8509C12.4313 17.384 11.7706 17.5263 11.2671 17.2878L8.56114 16.0087C8.404 15.9364 8.21543 16.0024 8.14314 16.1595C8.12508 16.1966 8.11457 16.2369 8.11223 16.2781C8.10989 16.3193 8.11576 16.3605 8.1295 16.3994C8.14325 16.4383 8.16459 16.4741 8.1923 16.5047C8.22 16.5352 8.2535 16.56 8.29086 16.5775L11 17.8567C11.5154 18.1018 12.0969 18.0798 12.5777 17.8409C14.2749 17.8881 16.6917 16.1218 17.7414 15.1664C17.9043 15.0172 18.1174 14.935 18.3382 14.9362C18.559 14.9374 18.7713 15.0218 18.9326 15.1727C19.0209 15.2531 19.0919 15.3506 19.1412 15.4594C19.1905 15.5682 19.2172 15.6858 19.2195 15.8052C19.2219 15.9247 19.1999 16.0433 19.1549 16.1539C19.1099 16.2645 19.0428 16.3648 18.9577 16.4487L16.9337 18.4664C14.586 20.7638 12.1063 20.6098 10.4437 20.0755Z" fill="#71808E"/>
<path d="M20.2118 5.59287H17.9709C18.1215 5.29357 18.1737 4.95436 18.1201 4.62363C18.0665 4.2929 17.9098 3.98755 17.6723 3.75116C17.0375 3.12258 15.9541 3.11158 15.3183 3.79515C14.6932 3.12321 13.6149 3.11001 12.9675 3.75116C12.4571 4.2669 12.3719 5.01773 12.6721 5.59287H10.4281C10.1452 5.59287 9.91577 5.8223 9.91577 6.10201V7.10144C9.91577 7.38116 10.1452 7.61058 10.4249 7.61058H10.6575V11.7246C10.6575 12.438 11.2358 13.0226 11.9492 13.0226H18.6843C19.4041 13.0226 19.9823 12.438 19.9823 11.7246V7.61058H20.2118C20.4946 7.61058 20.7241 7.38116 20.7241 7.10144V6.10201C20.7241 5.81915 20.4946 5.59287 20.2118 5.59287ZM14.4949 12.1646H11.9492C11.7041 12.1646 11.5155 11.9697 11.5155 11.7246V7.86201H14.4949V12.1646ZM14.1681 5.59287H13.9103C13.3613 5.45175 13.1718 4.7575 13.5803 4.35773C13.9886 3.94004 14.8227 4.14338 14.8846 4.81344C14.5389 4.9423 14.2718 5.23144 14.1681 5.59287ZM17.0595 4.35773C17.4677 4.75687 17.2792 5.45144 16.7295 5.59287H16.4718C16.4211 5.41623 16.3299 5.25383 16.2055 5.11854C16.0811 4.98325 15.927 4.87879 15.7552 4.81344C15.8165 4.15061 16.6522 3.94098 17.0595 4.35773ZM19.1243 11.7246C19.1243 11.9697 18.9358 12.1646 18.6843 12.1646H16.1449V7.86201H19.1243V11.7246ZM15.3199 2.41984C15.4033 2.41984 15.4832 2.38673 15.5421 2.32779C15.6011 2.26885 15.6342 2.18891 15.6342 2.10556V1.28401C15.6342 1.20066 15.6011 1.12072 15.5421 1.06178C15.4832 1.00284 15.4033 0.969727 15.3199 0.969727C15.2366 0.969727 15.1566 1.00284 15.0977 1.06178C15.0387 1.12072 15.0056 1.20066 15.0056 1.28401V2.10556C15.0056 2.18891 15.0387 2.26885 15.0977 2.32779C15.1566 2.38673 15.2366 2.41984 15.3199 2.41984ZM12.0105 3.01824C12.0397 3.04744 12.0743 3.07061 12.1124 3.08642C12.1506 3.10223 12.1915 3.11038 12.2327 3.11039C12.274 3.1104 12.3149 3.10229 12.353 3.0865C12.3912 3.07072 12.4258 3.04758 12.455 3.0184C12.4842 2.98922 12.5074 2.95457 12.5232 2.91644C12.539 2.87831 12.5472 2.83743 12.5472 2.79615C12.5472 2.75487 12.5391 2.71399 12.5233 2.67585C12.5075 2.6377 12.4844 2.60304 12.4552 2.57384L11.8247 1.9437C11.7958 1.91368 11.7611 1.88974 11.7227 1.87327C11.6844 1.85679 11.6431 1.84812 11.6014 1.84776C11.5597 1.8474 11.5183 1.85535 11.4797 1.87115C11.441 1.88696 11.406 1.91029 11.3764 1.9398C11.3469 1.96931 11.3236 2.0044 11.3078 2.04303C11.292 2.08165 11.284 2.12304 11.2844 2.16477C11.2848 2.2065 11.2934 2.24774 11.3099 2.28608C11.3264 2.32443 11.3503 2.35911 11.3803 2.3881L12.0105 3.01824ZM18.6287 3.01824L19.2595 2.38841C19.2895 2.35942 19.3134 2.32474 19.3299 2.2864C19.3464 2.24805 19.3551 2.20681 19.3554 2.16508C19.3558 2.12335 19.3478 2.08197 19.332 2.04334C19.3162 2.00472 19.2929 1.96963 19.2634 1.94012C19.2339 1.91061 19.1988 1.88727 19.1602 1.87147C19.1215 1.85567 19.0801 1.84771 19.0384 1.84808C18.9967 1.84844 18.9554 1.85711 18.9171 1.87358C18.8788 1.89005 18.8441 1.91399 18.8151 1.94401L18.1843 2.57384C18.1543 2.60283 18.1304 2.63751 18.1139 2.67586C18.0974 2.7142 18.0887 2.75544 18.0884 2.79717C18.088 2.8389 18.096 2.88029 18.1118 2.91891C18.1276 2.95754 18.1509 2.99263 18.1804 3.02214C18.2099 3.05165 18.245 3.07498 18.2836 3.09078C18.3223 3.10659 18.3637 3.11454 18.4054 3.11418C18.4471 3.11381 18.4884 3.10514 18.5267 3.08867C18.565 3.0722 18.5997 3.04826 18.6287 3.01824Z" fill="#71808E"/>
</svg>
