<svg width="22" height="22" viewBox="0 0 22 22" fill="none" xmlns="http://www.w3.org/2000/svg">
<path d="M11.6875 11C11.6875 10.6205 11.3795 10.3125 11 10.3125C10.6205 10.3125 10.3125 10.6205 10.3125 11C10.3125 14.0326 12.7799 16.5 15.8125 16.5C18.8451 16.5 21.3125 14.0326 21.3125 11C21.3125 8.2005 19.2087 5.88775 16.5 5.54744V2.75C16.5 1.61287 15.5746 0.6875 14.4375 0.6875H3.4375C2.30037 0.6875 1.375 1.61287 1.375 2.75V19.25C1.375 20.3871 2.30037 21.3125 3.4375 21.3125H14.4375C15.5746 21.3125 16.5 20.3871 16.5 19.25V17.875C16.5 17.4948 16.192 17.1875 15.8125 17.1875C15.433 17.1875 15.125 17.4948 15.125 17.875V19.25C15.125 19.6295 14.8163 19.9375 14.4375 19.9375H3.4375C3.05869 19.9375 2.75 19.6295 2.75 19.25V2.75C2.75 2.37119 3.05869 2.0625 3.4375 2.0625H14.4375C14.8163 2.0625 15.125 2.37119 15.125 2.75V5.54744C14.3172 5.64781 13.5506 5.92281 12.8693 6.35663L13.0419 5.66706C13.134 5.29856 12.9099 4.92525 12.5414 4.83313C12.1736 4.741 11.8002 4.96513 11.7074 5.33362L11.0199 8.08363C10.9684 8.28919 11.0151 8.50644 11.1451 8.6735C11.275 8.84056 11.4757 8.9375 11.6875 8.9375H14.4375C14.817 8.9375 15.125 8.6295 15.125 8.25C15.125 7.8705 14.817 7.5625 14.4375 7.5625H13.53C14.201 7.11562 14.9882 6.875 15.8125 6.875C18.0874 6.875 19.9375 8.72506 19.9375 11C19.9375 13.2749 18.0874 15.125 15.8125 15.125C13.5376 15.125 11.6875 13.2749 11.6875 11Z" fill="#667085"/>
<path d="M8.9375 11H4.8125C4.433 11 4.125 11.308 4.125 11.6875C4.125 12.0677 4.433 12.375 4.8125 12.375H8.9375C9.317 12.375 9.625 12.0677 9.625 11.6875C9.625 11.308 9.317 11 8.9375 11ZM8.9375 14.4375H4.8125C4.433 14.4375 4.125 14.7448 4.125 15.125C4.125 15.5052 4.433 15.8125 4.8125 15.8125H8.9375C9.317 15.8125 9.625 15.5052 9.625 15.125C9.625 14.7448 9.317 14.4375 8.9375 14.4375ZM8.9375 7.5625H4.8125C4.433 7.5625 4.125 7.8705 4.125 8.25C4.125 8.6295 4.433 8.9375 4.8125 8.9375H8.9375C9.317 8.9375 9.625 8.6295 9.625 8.25C9.625 7.8705 9.317 7.5625 8.9375 7.5625ZM8.9375 4.125H4.8125C4.433 4.125 4.125 4.433 4.125 4.8125C4.125 5.192 4.433 5.5 4.8125 5.5H8.9375C9.317 5.5 9.625 5.192 9.625 4.8125C9.625 4.433 9.317 4.125 8.9375 4.125ZM16.5 13.0625V11.6875H17.875C18.2545 11.6875 18.5625 11.3795 18.5625 11C18.5625 10.6205 18.2545 10.3125 17.875 10.3125H15.8125C15.433 10.3125 15.125 10.6205 15.125 11V13.0625C15.125 13.4427 15.433 13.75 15.8125 13.75C16.192 13.75 16.5 13.4427 16.5 13.0625Z" fill="#667085"/>
</svg>
